<?xml version="1.0" standalone="no"?>
<!DOCTYPE svg PUBLIC "-//W3C//DTD SVG 20010904//EN"
 "http://www.w3.org/TR/2001/REC-SVG-20010904/DTD/svg10.dtd">
<svg version="1.0" xmlns="http://www.w3.org/2000/svg"
 width="1173.000000pt" height="1173.000000pt" viewBox="0 0 1173.000000 1173.000000"
 preserveAspectRatio="xMidYMid meet">
<metadata>
Created by potrace 1.14, written by Peter Selinger 2001-2017
</metadata>
<g transform="translate(0.000000,1173.000000) scale(0.100000,-0.100000)"
fill="#000000" stroke="none">
<path d="M3135 11719 c-16 -4 -109 -71 -205 -147 -336 -266 -676 -503 -910
-634 -63 -36 -153 -90 -200 -120 -86 -55 -264 -156 -462 -262 -59 -32 -110
-61 -113 -66 -7 -12 39 -131 75 -194 l29 -51 -34 -100 c-19 -55 -44 -145 -57
-200 l-23 -100 -3 -3830 c-3 -3892 -2 -3997 34 -4168 99 -480 474 -890 957
-1048 86 -28 289 -69 343 -69 l24 0 0 -180 0 -180 659 0 c518 0 660 3 664 13
66 166 141 335 153 344 12 8 468 12 1829 13 l1814 1 25 -38 c14 -21 53 -104
87 -186 l62 -147 659 0 658 0 0 179 0 180 58 6 c367 42 674 191 909 439 177
187 294 405 361 676 l26 105 3 780 4 780 41 48 c164 195 465 584 672 869 l78
108 -20 28 c-33 46 -112 115 -197 171 -44 30 -191 137 -327 239 l-248 185 0
1197 0 1197 111 144 c217 281 279 376 279 431 0 33 -77 100 -242 213 l-147 99
-4 711 -3 710 -26 105 c-72 292 -189 502 -393 706 -162 163 -328 265 -545 338
-184 61 -235 67 -644 73 l-369 5 7 74 c3 41 9 107 12 148 8 90 -9 171 -40 191
-59 37 -1093 71 -1729 55 -488 -11 -897 -28 -947 -39 -59 -12 -65 -37 -63
-248 l3 -183 -1025 0 -1024 0 -49 53 c-27 28 -130 144 -228 257 -213 244 -295
330 -314 329 -8 0 -28 -5 -45 -10z m27 -364 c-10 -20 -35 -45 -44 -45 -4 0 -8
13 -8 29 0 25 4 28 29 27 16 -1 27 -5 23 -11z m-107 -75 c53 -102 55 -105 72
-80 8 11 22 20 31 20 9 0 26 7 36 15 11 8 32 15 48 15 23 0 28 4 28 26 0 40
20 24 40 -33 32 -92 0 -175 -76 -195 -47 -13 -54 -22 -28 -32 9 -4 15 -9 12
-12 -3 -2 -17 0 -30 6 -27 13 -62 63 -50 74 4 4 0 6 -8 4 -9 -2 -16 6 -18 19
-4 28 -61 70 -154 114 l-74 34 66 51 c36 28 65 51 66 50 1 -1 18 -35 39 -76z
m5142 44 c83 -4 157 -10 163 -14 7 -4 5 -130 -7 -428 l-17 -422 -163 0 -163 0
27 43 c15 23 56 84 90 136 35 51 63 96 63 99 0 13 -35 42 -50 42 -10 0 -42
-39 -80 -97 -35 -54 -84 -127 -108 -162 l-45 -63 -18 35 c-17 33 -40 55 -85
84 -16 10 -13 11 19 6 42 -6 44 -3 21 36 -15 26 -15 29 38 111 29 47 117 181
196 299 78 117 142 217 142 221 0 15 -53 60 -71 60 -11 0 -30 -21 -52 -58 -19
-32 -80 -125 -136 -208 -56 -82 -130 -190 -164 -241 -51 -75 -65 -90 -79 -82
-44 23 -65 -5 -32 -43 15 -16 15 -18 1 -24 -8 -3 -24 -1 -35 5 -11 6 -21 9
-23 7 -2 -3 -4 59 -4 137 0 116 -3 148 -17 172 l-17 30 7 -35 c12 -60 8 -293
-5 -315 -11 -17 -12 -12 -7 30 4 46 3 44 -16 -24 -11 -41 -23 -77 -26 -80 -8
-8 6 89 16 109 4 8 8 38 9 65 l2 50 -23 -27 c-13 -15 -35 -32 -50 -37 l-28
-10 6 62 c9 107 14 126 39 146 28 21 33 33 10 25 -11 -5 -15 1 -15 25 0 21 -5
31 -15 31 -8 0 -15 6 -15 14 0 8 -3 17 -7 19 -5 3 -8 -72 -8 -166 -1 -95 -5
-181 -10 -192 -8 -19 -7 -19 11 -3 19 16 19 14 20 -72 0 -49 5 -95 11 -102 6
-7 13 -23 16 -35 5 -22 2 -23 -58 -23 l-63 0 14 38 c7 20 13 50 14 66 0 28 -2
26 -63 -38 -57 -60 -66 -66 -103 -66 -55 0 -154 49 -193 97 -17 20 -31 33 -31
27 0 -6 17 -30 38 -54 l37 -45 -32 23 c-18 13 -39 32 -47 43 -13 19 -16 18
-64 -37 -55 -61 -71 -64 -94 -18 -9 20 -26 32 -57 41 -24 7 -52 15 -62 18 -11
4 -19 2 -19 -4 0 -5 10 -11 21 -13 12 -2 33 -20 46 -41 l24 -38 -33 3 c-26 2
-36 10 -49 38 -9 19 -21 34 -25 33 -17 -5 -2 62 17 82 18 18 21 18 32 4 12
-16 77 -54 81 -47 2 3 29 72 63 163 8 22 19 46 25 52 18 22 31 14 25 -14 -3
-17 4 -48 19 -81 28 -64 29 -72 9 -72 -8 0 -23 17 -34 38 -14 26 -21 33 -25
22 -3 -8 -15 -41 -26 -74 -19 -57 -19 -59 -1 -82 l18 -23 25 27 c14 15 49 48
78 75 l52 47 -33 1 -34 0 35 17 c47 22 47 22 27 33 -19 11 -51 76 -48 97 1 7
-5 22 -14 34 -10 15 -15 48 -16 103 -2 65 -3 73 -9 40 l-7 -40 -2 34 c-2 46
20 116 31 99 6 -10 8 -10 8 2 0 25 56 134 78 154 21 18 21 20 4 32 -16 13 -16
15 1 28 29 23 50 9 43 -28 l-6 -31 25 30 c14 17 23 35 21 42 -7 17 18 22 94
22 107 -1 169 -18 282 -77 10 -5 38 53 38 79 l0 22 228 -6 c125 -4 295 -10
379 -13z m-1806 -6 c2 -53 13 -104 35 -164 39 -106 38 -104 20 -104 -23 0 -56
18 -85 46 -13 13 -27 24 -32 24 -29 0 -92 -141 -70 -155 4 -2 2 -47 -5 -100
-15 -114 -35 -153 -127 -243 l-64 -63 -7 168 c-3 92 -9 263 -13 380 l-6 212
109 4 c60 1 139 4 177 5 48 1 67 -2 68 -10z m-3466 -98 c4 -6 10 -8 15 -5 4 3
29 -11 54 -30 25 -19 46 -33 46 -30 0 3 12 -5 26 -18 28 -23 65 -97 63 -125
-1 -10 -4 -7 -8 8 -6 20 -9 13 -12 -32 l-4 -57 43 -6 c43 -6 43 -7 40 -43 -3
-36 -2 -37 42 -46 53 -11 59 -14 41 -25 -11 -7 -9 -13 8 -30 42 -42 52 -29 49
59 -3 81 6 106 33 95 8 -3 20 -19 28 -36 13 -29 14 -30 27 -10 15 21 4 71 -16
71 -5 0 -10 23 -10 50 0 41 -5 54 -25 72 -14 12 -25 28 -25 37 0 12 3 12 12 3
20 -20 27 -14 30 26 l3 39 145 -160 c80 -88 145 -165 145 -171 0 -6 -12 -10
-27 -9 -31 2 -43 -26 -23 -53 9 -14 10 -26 0 -58 -7 -23 -15 -56 -19 -75 -6
-33 -6 -34 13 -17 11 10 17 25 14 37 -3 11 2 28 13 40 17 19 19 19 31 3 20
-27 16 -75 -8 -100 -25 -26 -19 -54 10 -54 11 0 22 -8 25 -18 7 -20 92 -66
107 -57 18 12 8 48 -23 81 -18 19 -39 32 -47 29 -10 -4 -12 0 -7 17 4 13 12
49 17 81 6 31 14 57 18 57 4 0 28 -21 53 -47 49 -51 50 -54 27 -148 -4 -17 14
-69 29 -84 11 -12 11 -15 0 -21 -7 -3 -183 -4 -390 -2 l-378 4 2 134 c1 74 6
134 10 134 4 0 8 7 8 15 0 12 -9 9 -40 -11 -22 -14 -46 -24 -55 -20 -12 4 -15
-3 -15 -38 0 -51 -21 -115 -52 -159 l-23 -31 38 23 37 23 0 -36 c0 -34 -2 -36
-35 -36 -19 0 -35 5 -35 11 0 8 -4 8 -14 0 -9 -8 -45 -11 -95 -10 -67 1 -79 4
-70 15 6 8 17 14 23 14 6 0 4 -5 -4 -10 -13 -9 -13 -10 0 -10 23 0 69 40 63
56 -4 10 -9 10 -23 2 -10 -6 -16 -18 -13 -25 3 -8 -2 -13 -13 -11 -37 3 -54
-2 -54 -16 0 -16 -42 -16 -47 0 -2 6 8 25 22 42 33 40 85 51 121 27 26 -16 26
-16 19 7 -10 31 -26 49 -39 45 -6 -2 -17 3 -25 11 -30 29 -120 -18 -106 -55 2
-7 -2 -13 -10 -13 -19 0 -19 -13 0 -50 l16 -30 -88 -1 c-105 -2 -132 -4 -140
-13 -4 -3 -17 4 -30 16 -18 17 -23 18 -23 6 0 -17 -48 -38 -88 -38 -19 0 -22
-3 -14 -13 8 -10 6 -16 -9 -25 -15 -10 -19 -10 -19 2 0 8 -7 16 -15 20 -8 3
-15 0 -15 -6 0 -7 -7 -5 -17 5 -15 14 -15 19 -5 26 10 6 7 10 -12 13 -24 5
-25 3 -24 -36 2 -98 -41 -119 -89 -42 -15 22 -39 60 -55 83 -16 24 -26 48 -22
55 5 8 2 9 -11 4 -18 -6 -18 -6 -2 12 18 20 23 67 8 76 -5 3 -14 -8 -21 -24
-7 -17 -16 -30 -21 -30 -12 0 -79 43 -79 51 0 3 21 17 47 30 26 13 54 30 61
37 8 7 17 10 20 7 4 -3 0 -11 -8 -16 -12 -9 -11 -10 4 -5 10 4 26 1 35 -6 9
-8 8 -3 -4 11 -20 23 -20 23 0 38 47 35 53 35 57 -1 2 -22 0 -32 -8 -29 -6 2
-10 -5 -8 -19 1 -13 3 -38 3 -55 1 -21 11 -44 29 -63 l27 -31 27 35 c25 31 26
35 11 47 -14 12 -15 11 -9 -9 4 -12 4 -22 -1 -22 -12 0 -37 42 -39 65 -2 11
-5 38 -9 60 -8 57 7 77 107 139 65 40 89 51 98 42 9 -8 11 -7 8 6 -2 11 24 35
84 77 49 34 92 61 97 61 5 0 11 4 13 8 5 12 134 102 147 102 6 0 11 4 11 9 0
5 14 20 32 32 17 13 28 18 24 11 -12 -19 1 -14 23 9 12 13 26 19 36 15 10 -4
14 -2 9 6 -4 6 1 17 11 25 22 15 71 17 80 3z m4048 -122 c-28 -79 -41 -160
-36 -226 5 -61 -2 -81 -28 -82 -14 0 -16 123 -4 193 13 76 25 108 53 140 25
29 31 19 15 -25z m-93 -86 c-13 -41 -9 -233 5 -264 4 -11 3 -18 -3 -18 -26 0
-36 210 -13 289 7 23 15 41 17 38 3 -3 0 -23 -6 -45z m-3753 -64 c-3 -8 -6 -5
-6 6 -1 11 2 17 5 13 3 -3 4 -12 1 -19z m3507 -45 l30 -28 -18 29 -18 29 33
-25 c19 -13 48 -30 64 -36 28 -12 29 -11 10 4 -19 15 -19 16 14 9 27 -6 32 -4
26 6 -6 10 -5 11 3 4 5 -5 12 -36 14 -67 3 -64 11 -58 -87 -74 -49 -8 -66 -17
-131 -66 -28 -21 -56 -38 -62 -38 -6 0 -23 -15 -37 -34 -28 -36 -175 -133
-175 -114 0 6 27 44 59 83 33 40 70 90 82 111 13 21 39 62 59 89 20 28 48 71
63 98 16 26 31 47 34 47 4 0 20 -12 37 -27z m-2927 -119 c-3 -3 -12 -4 -19 -1
-8 3 -5 6 6 6 11 1 17 -2 13 -5z m2133 -104 l0 -110 -783 0 -782 0 -110 110
-110 110 893 0 892 0 0 -110z m3520 86 c114 -24 197 -54 290 -103 121 -64 194
-119 280 -209 191 -201 305 -465 324 -754 l6 -85 -15 65 c-29 133 -78 263
-123 329 -220 323 -482 495 -842 551 -47 7 -196 11 -397 11 l-323 -1 0 49 c0
26 3 76 7 111 l6 62 356 -5 c273 -4 374 -9 431 -21z m-1235 -76 c3 -5 1 -10
-4 -10 -6 0 -11 5 -11 10 0 6 2 10 4 10 3 0 8 -4 11 -10z m-15 -30 c0 -5 -2
-10 -4 -10 -3 0 -8 5 -11 10 -3 6 -1 10 4 10 6 0 11 -4 11 -10z m-22 -38 c-7
-10 -13 -18 -14 -20 -1 -1 -7 4 -14 13 -11 13 -10 14 4 9 11 -4 16 -1 16 11 0
9 5 13 10 10 8 -5 7 -12 -2 -23z m-5940 -7 c-3 -3 -9 2 -12 12 -6 14 -5 15 5
6 7 -7 10 -15 7 -18z m1777 -23 c-9 -9 -35 8 -35 24 0 16 2 16 20 -1 11 -10
18 -20 15 -23z m-865 -5 c0 -24 21 -87 28 -83 4 2 8 -7 8 -20 3 -36 -11 -29
-24 14 -23 75 -30 112 -21 107 5 -4 9 -12 9 -18z m-898 -21 c7 4 10 4 6 -1 -4
-4 -3 -14 3 -22 9 -10 8 -13 -4 -13 -18 0 -37 30 -36 57 0 14 2 13 10 -5 5
-15 13 -21 21 -16z m5903 14 c3 -5 2 -10 -4 -10 -5 0 -13 5 -16 10 -3 6 -2 10
4 10 5 0 13 -4 16 -10z m-20 -28 c-3 -3 -11 0 -18 7 -9 10 -8 11 6 5 10 -3 15
-9 12 -12z m-3998 -90 c-19 -4 -67 43 -67 65 0 12 12 5 41 -22 27 -27 35 -41
26 -43z m3983 68 c0 -5 -4 -10 -10 -10 -5 0 -10 5 -10 10 0 6 5 10 10 10 6 0
10 -4 10 -10z m-20 -31 c0 -6 -4 -7 -10 -4 -5 3 -10 11 -10 16 0 6 5 7 10 4 6
-3 10 -11 10 -16z m-15 -19 c3 -5 2 -10 -4 -10 -5 0 -13 5 -16 10 -3 6 -2 10
4 10 5 0 13 -4 16 -10z m-25 -20 c0 -5 -2 -10 -4 -10 -3 0 -8 5 -11 10 -3 6
-1 10 4 10 6 0 11 -4 11 -10z m-6200 -107 c0 18 15 23 24 8 3 -5 -5 -16 -19
-25 -30 -20 -33 -36 -5 -29 16 4 19 2 14 -11 -9 -24 15 -48 42 -42 31 8 39
-19 8 -32 -13 -6 -53 -14 -88 -18 -58 -6 -65 -5 -75 14 -6 11 -11 30 -11 41 0
17 6 21 30 21 26 0 30 3 30 29 0 16 3 37 6 46 6 14 8 14 25 -1 18 -16 19 -16
19 -1z m370 -77 c0 -11 -19 -15 -25 -6 -3 5 1 10 9 10 9 0 16 -2 16 -4z m-140
-18 c0 -7 -5 -20 -10 -28 -8 -12 -10 -9 -10 13 0 15 5 27 10 27 6 0 10 -6 10
-12z m7268 -39 c144 -28 305 -156 376 -300 70 -142 68 -104 64 -1267 l-3
-1042 -26 -23 c-14 -12 -32 -31 -40 -41 -12 -16 -15 -400 -19 -2705 -5 -2493
-7 -2690 -22 -2741 -48 -152 -146 -275 -274 -342 -141 -74 158 -68 -3456 -66
l-3253 3 -65 23 c-196 70 -329 234 -365 447 -22 133 -16 1188 8 1231 8 16 29
56 47 89 l31 59 -3 382 -3 381 -37 27 c-38 27 -40 32 -52 158 -1 16 -15 37
-31 49 -15 12 -33 36 -39 53 -9 23 -12 350 -11 1331 l1 1301 26 34 c15 19 40
71 57 114 17 44 43 92 58 108 l28 29 3 424 3 424 -44 19 -44 20 -8 75 c-6 71
-9 77 -40 98 -20 14 -36 35 -39 52 -11 56 -7 1113 5 1169 36 174 178 338 357
410 l57 23 3275 5 c1801 3 3309 4 3350 2 41 -2 99 -8 128 -13z m-7453 -239
c-3 -5 -10 -10 -16 -10 -5 0 -9 5 -9 10 0 6 7 10 16 10 8 0 12 -4 9 -10z m229
-1505 c18 -17 26 -34 26 -58 0 -41 -27 -57 -100 -57 -73 0 -100 16 -100 57 0
52 37 83 98 83 38 0 55 -5 76 -25z m103 -230 c3 -9 3 -18 0 -21 -2 -3 -53 -8
-111 -11 l-107 -6 3 -46 c4 -59 26 -71 136 -71 l82 0 -1 -162 c-1 -180 1 -179
-49 -10 -27 94 -76 152 -127 152 -66 0 -98 -37 -150 -170 l-32 -85 -1 216 c0
119 3 219 7 222 3 4 82 7 175 7 143 0 170 -2 175 -15z m7814 -566 c10 -19 9
-20 -10 -9 -12 6 -21 18 -21 26 0 19 16 10 31 -17z m189 -136 c0 -10 -50 -93
-56 -93 -11 0 8 65 24 83 15 17 32 23 32 10z m-8054 -85 c12 -13 -30 -67 -68
-88 -22 -12 -59 -23 -84 -23 l-46 -2 -19 60 c-10 33 -19 62 -19 64 0 6 229 -5
236 -11z m7954 -2158 c22 -22 40 -44 40 -49 0 -6 4 -13 10 -16 6 -4 7 1 3 11
-3 9 33 -14 80 -52 47 -38 86 -75 86 -81 1 -19 -6 -16 -73 26 -58 36 -62 37
-64 17 0 -12 2 -16 6 -9 6 9 16 7 37 -8 46 -31 108 -62 100 -50 -15 26 18 4
140 -90 259 -199 511 -387 577 -430 37 -24 68 -48 68 -52 0 -13 -43 -67 -50
-62 -4 2 -7 -2 -7 -8 0 -16 -74 -117 -85 -117 -4 0 -8 -5 -8 -11 0 -37 -754
-958 -961 -1174 -19 -19 -19 -17 -19 143 l0 163 23 -11 22 -11 -22 17 -23 16
0 345 c0 272 3 343 13 337 10 -6 10 -4 0 7 -17 17 -16 64 1 92 21 33 29 67 17
67 -6 0 -11 -6 -11 -14 0 -8 -4 -17 -8 -20 -5 -3 -8 86 -8 197 1 172 3 202 16
202 8 1 25 6 37 13 24 13 101 110 126 157 22 43 30 115 18 148 -7 18 -7 26 -1
22 17 -10 11 6 -16 49 -14 23 -48 57 -74 76 -27 19 -46 38 -44 41 2 3 -12 14
-30 24 l-34 18 -1 95 -2 95 40 -36 c22 -20 59 -55 81 -77z m-79 -131 c16 -11
27 -24 24 -29 -3 -5 -8 -28 -11 -52 -6 -48 -42 -178 -49 -178 -3 0 -5 36 -5
81 0 58 3 78 12 73 8 -5 9 6 5 40 -4 30 -3 45 3 41 16 -10 12 7 -7 27 -22 24
-8 23 28 -3z m115 -99 c16 -17 19 -27 11 -32 -7 -4 -9 -8 -5 -8 10 0 -40 -177
-59 -208 -29 -45 -85 -112 -94 -112 -20 0 -7 57 31 128 21 43 44 97 49 122 5
25 14 65 20 90 9 40 7 48 -12 70 l-22 25 29 -25 c16 -14 40 -36 52 -50z
m-8023 -650 c20 -21 37 -43 37 -48 0 -8 -38 -21 -110 -36 -28 -6 -108 10 -127
25 -19 16 29 106 59 111 49 8 103 -12 141 -52z m77 -209 c0 -12 -37 -21 -95
-21 -81 0 -91 -6 -105 -58 -6 -26 -40 -108 -75 -182 -35 -74 -65 -142 -68
-150 -3 -8 -6 80 -6 196 -1 116 2 214 6 217 10 10 343 8 343 -2z m10 -288 l0
-138 -60 135 c-33 74 -60 136 -60 137 0 2 27 3 60 3 l60 0 0 -137z m-85 -509
c8 -20 15 -42 15 -49 0 -16 -91 -45 -141 -45 -46 0 -59 18 -59 84 l0 46 85 0
85 0 15 -36z"/>
<path d="M7259 11208 c7 -10 10 -18 6 -18 -4 0 2 -8 14 -17 21 -18 21 -19 4
-53 -23 -44 -73 -62 -102 -36 -17 16 -19 16 -24 -6 -4 -12 -4 -24 -2 -27 3 -2
5 2 5 9 0 8 11 -1 24 -19 26 -35 115 -114 148 -132 10 -6 -8 17 -42 50 l-61
61 18 24 c22 30 73 52 84 35 18 -29 31 -166 28 -287 -2 -73 -3 -132 -2 -132 1
0 7 15 13 33 9 30 10 29 5 -13 -2 -25 -7 -55 -11 -65 -7 -19 -6 -19 17 1 13
12 29 20 34 18 6 -2 16 6 24 18 14 23 14 23 -8 4 -21 -19 -21 -19 -21 0 0 12
-3 15 -8 7 -4 -6 -6 37 -4 96 2 59 0 137 -6 173 -14 87 -75 228 -115 264 -17
16 -25 21 -18 12z m53 -110 c-15 -15 -26 -4 -18 18 5 13 9 15 18 6 9 -9 9 -15
0 -24z m-72 -47 c0 -18 -18 -21 -30 -6 -10 13 -9 15 9 15 11 0 21 -4 21 -9z"/>
<path d="M7661 11084 c-1 -7 6 -27 14 -45 8 -19 14 -27 14 -19 0 18 -27 79
-28 64z"/>
<path d="M6991 11034 c0 -11 3 -14 6 -6 3 7 2 16 -1 19 -3 4 -6 -2 -5 -13z"/>
<path d="M7581 11034 c0 -11 3 -14 6 -6 3 7 2 16 -1 19 -3 4 -6 -2 -5 -13z"/>
<path d="M7132 10970 c0 -14 2 -19 5 -12 2 6 2 18 0 25 -3 6 -5 1 -5 -13z"/>
<path d="M7696 10955 c8 -50 14 -58 14 -19 0 16 -5 36 -11 44 -7 11 -8 4 -3
-25z"/>
<path d="M7101 10867 c-1 -60 4 -87 19 -117 26 -52 31 -51 13 2 -8 23 -18 76
-22 118 l-8 75 -2 -78z"/>
<path d="M7122 10915 c0 -16 2 -22 5 -12 2 9 2 23 0 30 -3 6 -5 -1 -5 -18z"/>
<path d="M7187 10908 c-47 -30 -56 -46 -20 -34 21 8 77 55 71 61 -2 2 -25 -10
-51 -27z"/>
<path d="M7546 10927 c3 -10 9 -15 12 -12 3 3 0 11 -7 18 -10 9 -11 8 -5 -6z"/>
<path d="M7515 10909 c-11 -17 1 -21 15 -4 8 9 8 15 2 15 -6 0 -14 -5 -17 -11z"/>
<path d="M7690 10829 c0 -45 4 -69 9 -60 8 12 4 121 -5 130 -2 2 -4 -29 -4
-70z"/>
<path d="M7223 10880 c-13 -5 -23 -14 -23 -20 0 -20 -2 -25 -12 -37 -7 -9 -7
-13 2 -13 7 0 18 8 25 17 11 15 13 13 13 -11 0 -49 55 -63 92 -24 20 22 28 44
11 34 -5 -3 -11 3 -14 14 -3 12 1 20 12 23 12 3 8 7 -12 15 -33 14 -63 14 -94
2z m80 -69 c-10 -37 -53 -37 -53 0 0 14 7 19 29 19 24 0 28 -4 24 -19z"/>
<path d="M7500 10870 c0 -5 5 -10 11 -10 5 0 7 5 4 10 -3 6 -8 10 -11 10 -2 0
-4 -4 -4 -10z"/>
<path d="M7132 10820 c0 -14 2 -19 5 -12 2 6 2 18 0 25 -3 6 -5 1 -5 -13z"/>
<path d="M7665 10803 c-4 -21 -11 -51 -16 -67 -14 -44 -9 -65 6 -30 15 34 31
134 22 134 -3 0 -9 -17 -12 -37z"/>
<path d="M7100 10710 c-9 -16 -8 -18 5 -14 8 4 15 12 15 20 0 20 -7 17 -20 -6z"/>
<path d="M7115 10640 c3 -5 11 -10 16 -10 6 0 7 5 4 10 -3 6 -11 10 -16 10 -6
0 -7 -4 -4 -10z"/>
<path d="M7341 10634 c0 -11 3 -14 6 -6 3 7 2 16 -1 19 -3 4 -6 -2 -5 -13z"/>
<path d="M7260 10589 c0 -5 5 -7 10 -4 6 3 10 8 10 11 0 2 -4 4 -10 4 -5 0
-10 -5 -10 -11z"/>
<path d="M3080 11105 c0 -5 5 -17 10 -25 5 -8 10 -10 10 -5 0 6 -5 17 -10 25
-5 8 -10 11 -10 5z"/>
<path d="M2775 11070 c-3 -5 -1 -10 4 -10 6 0 11 5 11 10 0 6 -2 10 -4 10 -3
0 -8 -4 -11 -10z"/>
<path d="M2801 11034 c0 -11 3 -14 6 -6 3 7 2 16 -1 19 -3 4 -6 -2 -5 -13z"/>
<path d="M2905 10999 c5 -13 0 -16 -22 -15 -15 0 -31 5 -35 11 -5 7 -8 6 -8
-1 0 -6 -12 -14 -27 -17 -41 -9 -93 -44 -93 -63 0 -16 1 -16 19 0 17 16 18 16
14 -8 -3 -13 0 -32 6 -43 9 -15 10 -13 5 12 -3 20 0 37 11 50 9 11 14 14 10 7
-5 -9 3 -12 27 -10 21 2 32 -1 31 -9 -1 -6 4 -14 13 -17 17 -6 16 24 -1 36 -6
4 -2 8 8 8 10 0 16 4 12 9 -3 6 4 9 16 8 12 -1 25 -11 30 -26 5 -13 11 -22 14
-20 7 7 -13 81 -25 93 -8 8 -10 7 -5 -5z m-78 -55 c-3 -3 -12 -4 -19 -1 -8 3
-5 6 6 6 11 1 17 -2 13 -5z"/>
<path d="M3050 10948 c-2 -5 -3 -11 -4 -15 -1 -5 -5 -14 -10 -22 -5 -8 1 -7
18 4 14 10 26 22 26 29 0 6 -4 5 -9 -3 -7 -11 -9 -11 -14 0 -3 8 -6 11 -7 7z"/>
<path d="M2880 10916 c0 -9 5 -16 10 -16 6 0 10 4 10 9 0 6 -4 13 -10 16 -5 3
-10 -1 -10 -9z"/>
<path d="M2810 10900 c0 -5 5 -10 10 -10 6 0 10 5 10 10 0 6 -4 10 -10 10 -5
0 -10 -4 -10 -10z"/>
<path d="M2983 10881 c-6 -17 -7 -29 -2 -25 5 3 9 -3 10 -13 0 -10 2 -27 4
-38 2 -11 0 -37 -5 -58 -8 -37 -8 -38 11 -21 10 9 23 33 29 53 14 51 12 72 -4
36 l-13 -30 -7 50 c-4 28 -8 56 -9 64 -1 7 -7 -1 -14 -18z"/>
<path d="M2781 10884 c0 -11 3 -14 6 -6 3 7 2 16 -1 19 -3 4 -6 -2 -5 -13z"/>
<path d="M2876 10844 c-11 -8 -16 -14 -10 -14 13 0 39 18 34 24 -3 2 -14 -2
-24 -10z"/>
<path d="M3415 10851 c-3 -6 14 -19 38 -29 42 -19 64 -38 54 -48 -2 -2 -24 7
-48 21 -24 13 -47 25 -50 25 -15 0 6 -99 30 -145 22 -41 33 -51 68 -61 36 -11
44 -10 60 6 17 15 18 26 12 84 -7 74 -16 88 -78 128 -46 29 -75 35 -86 19z"/>
<path d="M2437 10838 c11 -12 7 -18 -27 -34 -37 -17 -40 -22 -40 -59 0 -41 14
-75 25 -63 4 3 1 16 -5 28 -9 17 -8 26 4 45 21 32 52 40 81 21 29 -19 33 -12
8 12 -16 16 -15 17 13 23 l29 6 -30 7 c-16 4 -39 12 -50 18 -17 10 -18 9 -8
-4z"/>
<path d="M2920 10830 c0 -11 4 -20 9 -20 5 0 7 9 4 20 -3 11 -7 20 -9 20 -2 0
-4 -9 -4 -20z"/>
<path d="M2414 10765 c-10 -8 -14 -15 -8 -15 5 0 19 7 30 15 10 8 14 15 8 15
-5 0 -19 -7 -30 -15z"/>
<path d="M2460 10760 c0 -5 5 -10 11 -10 5 0 7 5 4 10 -3 6 -8 10 -11 10 -2 0
-4 -4 -4 -10z"/>
<path d="M3150 10750 c0 -6 7 -10 15 -10 8 0 15 2 15 4 0 2 -7 6 -15 10 -8 3
-15 1 -15 -4z"/>
<path d="M2343 10738 c-19 -25 -26 -41 -15 -34 5 3 12 3 15 -1 2 -5 2 -2 1 5
-2 6 0 12 5 12 4 0 8 7 8 15 0 18 -2 18 -14 3z"/>
<path d="M2430 10741 c0 -5 7 -14 15 -21 16 -14 18 -10 9 14 -6 17 -24 22 -24
7z"/>
<path d="M2400 10726 c0 -9 5 -16 10 -16 6 0 10 4 10 9 0 6 -4 13 -10 16 -5 3
-10 -1 -10 -9z"/>
<path d="M3320 10733 c0 -6 -3 -18 -6 -27 -4 -11 -1 -16 10 -16 9 0 16 6 16
13 0 16 -20 46 -20 30z"/>
<path d="M3140 10714 c0 -8 -5 -12 -11 -8 -8 4 -9 -1 -4 -17 4 -13 9 -25 10
-27 2 -2 57 25 75 36 9 6 -33 32 -52 32 -10 0 -18 -7 -18 -16z"/>
<path d="M2505 10700 c-3 -5 -1 -10 4 -10 6 0 11 5 11 10 0 6 -2 10 -4 10 -3
0 -8 -4 -11 -10z"/>
<path d="M2321 10625 c20 -27 41 -49 47 -48 6 2 24 -2 39 -8 l28 -10 -21 23
c-12 13 -24 30 -28 38 -3 8 -4 4 -2 -10 l5 -25 -23 27 c-13 15 -27 24 -30 21
-3 -4 -6 2 -6 12 0 10 -3 15 -7 12 -3 -4 -13 -1 -22 6 -8 6 1 -10 20 -38z m39
-30 c14 -19 14 -19 -2 -6 -10 7 -18 18 -18 24 0 6 1 8 3 6 1 -2 9 -13 17 -24z"/>
<path d="M2430 10649 c0 -5 5 -7 10 -4 6 3 10 8 10 11 0 2 -4 4 -10 4 -5 0
-10 -5 -10 -11z"/>
<path d="M2224 10628 c9 -16 12 -28 7 -28 -6 0 -8 -7 -4 -16 3 -9 13 -14 24
-11 10 3 28 -2 41 -10 13 -8 10 -3 -7 11 -16 14 -41 38 -54 53 l-24 28 17 -27z"/>
<path d="M2330 10550 c0 -17 63 -50 95 -50 27 1 28 2 10 12 -11 6 -28 20 -37
32 -10 11 -18 15 -18 9 0 -9 -7 -10 -25 -3 -16 6 -25 6 -25 0z"/>
<path d="M3830 10501 c0 -25 6 -27 13 -6 4 8 2 17 -3 20 -6 4 -10 -3 -10 -14z"/>
<path d="M5445 8356 c-74 -17 -166 -54 -222 -89 -117 -74 -164 -147 -171 -267
-4 -69 1 -94 66 -320 38 -135 73 -259 76 -277 7 -30 5 -33 -86 -95 -117 -80
-279 -235 -361 -347 -144 -193 -224 -374 -281 -633 -7 -29 32 -24 -356 -48
-335 -21 -362 -33 -462 -203 -23 -40 -59 -92 -79 -117 -94 -116 -134 -233
-132 -395 1 -176 48 -316 136 -412 104 -113 139 -113 746 -7 140 24 265 44
277 44 18 0 34 -19 74 -84 114 -190 224 -325 336 -416 104 -83 189 -132 382
-216 l167 -74 -1 -102 c0 -57 -3 -224 -5 -373 -2 -181 1 -291 9 -334 22 -120
91 -195 218 -236 80 -26 334 -27 439 -2 92 23 188 70 235 117 67 67 89 186 68
366 -7 59 -7 60 22 77 59 35 143 122 167 172 38 82 29 189 -34 399 l-27 89 89
80 c257 230 348 356 465 645 l34 82 105 -5 c58 -4 173 -10 254 -16 188 -11
381 -11 476 1 186 24 277 150 288 400 8 175 -35 314 -140 463 -43 61 -44 65
-56 178 -21 211 -69 344 -159 442 -120 129 -233 128 -662 -6 -151 -47 -176
-53 -185 -40 -187 283 -379 460 -640 590 -113 57 -217 94 -334 119 l-80 17 -5
36 c-11 68 -26 246 -36 409 -9 156 -11 166 -42 224 -39 73 -107 131 -181 154
-71 22 -311 28 -392 10z m326 -226 l47 -12 5 -56 c3 -32 11 -124 17 -207 6
-82 22 -274 35 -425 13 -151 27 -314 31 -361 l6 -87 -63 -7 c-35 -4 -110 -18
-168 -31 -58 -13 -108 -21 -112 -16 -3 4 -25 79 -49 167 -23 88 -70 259 -105
380 -88 305 -123 441 -131 501 -6 50 -5 52 27 77 92 68 200 99 329 93 47 -3
106 -10 131 -16z m509 -897 c243 -89 466 -260 600 -457 22 -33 38 -61 36 -64
-3 -2 -78 -24 -168 -48 l-162 -44 -61 58 c-146 140 -220 191 -338 231 l-52 18
-7 89 c-3 49 -9 129 -13 178 l-6 88 38 -7 c21 -4 81 -22 133 -42z m-945 -286
l43 -149 -77 -76 c-72 -72 -156 -189 -226 -314 l-30 -53 -85 -11 c-47 -6 -123
-14 -168 -18 l-84 -7 7 33 c13 68 59 196 98 273 87 174 224 338 381 457 94 70
76 87 141 -135z m788 -130 c97 -32 194 -89 275 -162 92 -84 97 -104 12 -49
-92 59 -237 127 -320 151 -49 13 -97 17 -200 17 -116 -1 -146 -5 -215 -28 -95
-30 -183 -80 -295 -167 -46 -35 -94 -73 -108 -84 l-26 -19 25 44 c34 61 152
179 224 222 137 83 241 109 420 104 107 -2 144 -8 208 -29z m1709 -134 c14
-16 41 -57 59 -93 l34 -65 0 -162 c0 -95 -4 -166 -10 -172 -16 -16 -229 -40
-550 -61 -165 -11 -362 -27 -439 -35 -76 -8 -144 -15 -151 -15 -8 0 -14 29
-18 93 -4 60 -15 118 -31 166 -14 41 -24 76 -22 78 3 4 398 115 956 270 107
30 141 29 172 -4z m-1816 -133 c154 -53 282 -184 319 -326 57 -218 -46 -439
-252 -541 -63 -31 -84 -36 -165 -40 -111 -6 -178 13 -291 81 -61 36 -79 54
-114 111 -111 178 -115 356 -12 516 107 167 342 258 515 199z m-987 -550 c1
-25 10 -83 21 -129 11 -46 19 -86 17 -88 -11 -11 -1045 -293 -1075 -293 -46 0
-100 92 -138 236 -20 75 -24 107 -19 152 9 75 38 140 67 151 13 5 154 19 313
31 160 12 405 31 545 43 l255 22 7 -40 c3 -22 7 -60 7 -85z m2035 -147 c-29
-127 -99 -287 -180 -410 -88 -137 -360 -394 -385 -365 -3 4 -14 36 -23 72 -10
36 -31 111 -48 167 l-31 102 88 93 c87 91 187 230 221 307 l17 38 141 10 c228
16 207 17 200 -14z m-1816 -334 c82 -75 221 -167 318 -211 l73 -32 11 -81 c6
-44 14 -124 18 -177 6 -81 5 -98 -6 -98 -34 0 -232 74 -325 122 -159 82 -295
194 -391 322 -40 53 -80 125 -73 132 5 5 276 81 295 83 8 0 44 -26 80 -60z
m981 -306 c34 -115 87 -310 131 -478 23 -88 66 -247 97 -354 30 -106 51 -197
46 -202 -25 -24 -137 -83 -193 -100 -88 -29 -216 -29 -285 -2 -66 27 -61 2
-110 613 -13 168 -30 354 -36 413 -6 59 -10 110 -7 112 2 3 58 14 124 25 65
11 133 24 149 29 59 18 63 15 84 -56z"/>
<path d="M5750 6385 c-57 -29 -126 -102 -152 -162 -48 -108 -29 -215 57 -332
36 -49 53 -63 98 -79 179 -67 338 -13 417 142 32 62 35 77 35 150 -1 102 -33
175 -103 236 -59 50 -123 70 -226 70 -65 -1 -90 -6 -126 -25z m224 -99 c36
-15 84 -68 117 -132 l23 -42 -19 -43 c-38 -84 -74 -129 -118 -149 -49 -23
-115 -25 -160 -6 -40 17 -100 77 -127 130 l-22 41 22 58 c25 67 71 124 115
143 40 17 127 17 169 0z"/>
<path d="M10116 5121 c-3 -4 -1 -13 5 -21 7 -12 9 -12 9 -2 0 10 10 7 36 -8
19 -12 37 -21 38 -19 2 2 -16 16 -40 31 -24 15 -46 24 -48 19z"/>
<path d="M10146 5015 c-9 -26 -7 -32 5 -12 6 10 9 21 6 23 -2 3 -7 -2 -11 -11z"/>
<path d="M10170 4932 c0 -15 -3 -37 -6 -49 -4 -14 -2 -23 5 -23 7 0 39 -13 72
-30 33 -16 57 -25 54 -20 -7 11 5 13 49 10 31 -2 30 6 -8 49 -21 25 -6 20 27
-7 9 -8 20 -13 23 -9 8 8 -72 52 -148 81 l-68 25 0 -27z m82 -34 c5 1 7 -2 3
-8 -8 -13 19 -52 30 -42 5 4 5 1 0 -7 -7 -11 -13 -9 -29 12 -12 15 -30 41 -39
59 l-18 33 22 -25 c12 -14 26 -24 31 -22z m48 1 c8 -5 11 -9 7 -9 -5 0 1 -12
12 -27 29 -35 15 -45 -14 -10 -13 15 -29 27 -35 27 -5 0 -9 6 -7 13 1 6 -4 11
-10 10 -7 -2 -13 2 -13 8 0 11 31 5 60 -12z"/>
<path d="M10114 4785 c-9 -14 -15 -27 -13 -28 2 -1 21 -11 43 -20 37 -17 38
-19 20 -33 -18 -14 -18 -15 2 -5 22 11 112 -7 156 -30 11 -6 22 -8 25 -5 8 7
-31 23 -100 40 -31 8 -67 22 -79 30 -21 15 -21 16 -3 17 17 0 16 2 -4 10 -14
5 -31 7 -38 5 -9 -4 -8 2 3 19 9 14 14 25 10 25 -3 0 -13 -11 -22 -25z"/>
<path d="M10325 4780 c20 -22 34 -28 16 -7 -6 8 -8 17 -4 20 3 4 -2 7 -12 7
-17 0 -17 -1 0 -20z"/>
<path d="M10506 4780 c5 -8 9 -18 9 -22 0 -3 3 -9 7 -13 3 -4 5 0 4 9 -1 9 -8
22 -16 29 -10 10 -11 9 -4 -3z"/>
<path d="M10373 4755 c0 -8 4 -12 9 -9 5 3 6 10 3 15 -9 13 -12 11 -12 -6z"/>
<path d="M10200 4740 c8 -5 20 -10 25 -10 6 0 3 5 -5 10 -8 5 -19 10 -25 10
-5 0 -3 -5 5 -10z"/>
<path d="M10468 4705 c3 -23 8 -33 16 -28 6 3 7 2 3 -3 -5 -5 -13 -10 -18 -10
-5 -1 -14 -2 -19 -3 -10 -1 37 -81 47 -81 3 0 -2 11 -11 25 -23 35 -21 38 22
32 24 -4 32 -3 22 3 -12 7 -11 10 8 17 19 7 20 11 10 24 -7 9 -29 25 -48 37
l-36 21 4 -34z m59 -21 c-8 -8 -47 10 -47 22 0 12 5 11 25 -2 14 -9 24 -18 22
-20z"/>
<path d="M10400 4705 c13 -14 26 -25 28 -25 3 0 -5 11 -18 25 -13 14 -26 25
-28 25 -3 0 5 -11 18 -25z"/>
<path d="M10630 4689 c0 -3 28 -34 63 -70 35 -35 80 -84 101 -109 24 -28 30
-33 16 -12 -24 35 -179 201 -180 191z"/>
<path d="M10646 4625 c-3 -8 -1 -15 4 -15 6 0 10 7 10 15 0 8 -2 15 -4 15 -2
0 -6 -7 -10 -15z"/>
<path d="M10313 4615 c0 -8 4 -12 9 -9 5 3 16 0 25 -8 12 -9 15 -9 9 -1 -12
22 -43 34 -43 18z"/>
<path d="M10661 4584 c0 -11 3 -14 6 -6 3 7 2 16 -1 19 -3 4 -6 -2 -5 -13z"/>
<path d="M10385 4570 c10 -11 20 -20 23 -20 3 0 -3 9 -13 20 -10 11 -20 20
-23 20 -3 0 3 -9 13 -20z"/>
<path d="M10510 4550 c6 -11 13 -20 16 -20 2 0 0 9 -6 20 -6 11 -13 20 -16 20
-2 0 0 -9 6 -20z"/>
<path d="M10611 4554 c0 -11 3 -14 6 -6 3 7 2 16 -1 19 -3 4 -6 -2 -5 -13z"/>
<path d="M10197 4544 c-3 -3 -3 -12 -1 -18 3 -7 -6 -21 -20 -30 -25 -16 -31
-14 -27 9 1 6 -5 3 -15 -7 -16 -15 -15 -18 5 -46 11 -16 29 -29 38 -28 11 0
17 -5 17 -16 -1 -14 6 -18 32 -18 43 0 62 32 48 81 -9 31 -65 85 -77 73z"/>
<path d="M10671 4534 c0 -11 3 -14 6 -6 3 7 2 16 -1 19 -3 4 -6 -2 -5 -13z"/>
<path d="M10621 4514 c0 -11 3 -14 6 -6 3 7 2 16 -1 19 -3 4 -6 -2 -5 -13z"/>
<path d="M10300 4501 c13 -25 4 -70 -21 -100 -16 -19 -33 -26 -82 -31 -60 -6
-61 -7 -35 -19 36 -18 92 -7 129 27 49 44 53 141 6 142 -4 0 -3 -9 3 -19z"/>
<path d="M10673 4453 c-7 -2 -13 -9 -13 -14 0 -6 4 -8 9 -4 5 3 12 -9 14 -27
3 -26 4 -24 4 10 -1 23 -1 42 -1 41 -1 0 -7 -3 -13 -6z"/>
<path d="M10335 4329 c-4 -6 -5 -12 -2 -15 2 -3 7 2 10 11 7 17 1 20 -8 4z"/>
<path d="M10240 4316 c0 -2 9 -6 20 -9 11 -3 18 -1 14 4 -5 9 -34 13 -34 5z"/>
<path d="M10140 4306 c0 -2 8 -10 18 -17 15 -13 16 -12 3 4 -13 16 -21 21 -21
13z"/>
<path d="M10680 4276 c0 -8 4 -17 9 -20 5 -4 7 3 4 14 -6 23 -13 26 -13 6z"/>
<path d="M10154 4263 c16 -20 36 -23 36 -6 0 4 -3 3 -7 0 -3 -4 -16 1 -27 10
-21 18 -21 18 -2 -4z"/>
<path d="M10245 4240 c-3 -5 -2 -10 4 -10 5 0 13 5 16 10 3 6 2 10 -4 10 -5 0
-13 -4 -16 -10z"/>
<path d="M10340 4246 c0 -2 8 -10 18 -17 15 -13 16 -12 3 4 -13 16 -21 21 -21
13z"/>
<path d="M10190 4231 c0 -6 4 -13 10 -16 6 -3 7 1 4 9 -7 18 -14 21 -14 7z"/>
<path d="M10631 4203 c-1 -26 14 -31 23 -7 3 8 2 13 -3 9 -5 -3 -12 1 -14 7
-3 7 -6 3 -6 -9z"/>
<path d="M10545 4174 c-10 -19 -45 -59 -76 -89 -57 -52 -57 -53 -24 -45 23 5
36 4 40 -4 3 -6 3 2 0 18 -6 27 -5 28 24 23 19 -4 33 -1 41 8 7 8 9 15 5 15
-4 0 -3 6 3 13 13 16 26 97 15 97 -5 0 -17 -16 -28 -36z"/>
<path d="M10316 4137 c3 -10 9 -15 12 -12 3 3 0 11 -7 18 -10 9 -11 8 -5 -6z"/>
<path d="M9950 4122 c-11 -12 -9 -13 9 -7 13 4 29 1 39 -7 15 -11 15 -11 5 3
-7 9 -11 18 -8 20 2 3 -4 5 -14 5 -10 0 -24 -7 -31 -14z"/>
<path d="M10612 4105 c0 -16 2 -22 5 -12 2 9 2 23 0 30 -3 6 -5 -1 -5 -18z"/>
<path d="M10079 4086 c14 -15 26 -26 28 -26 9 0 -24 40 -37 45 -8 4 -4 -5 9
-19z"/>
<path d="M10276 3757 c3 -10 9 -15 12 -12 3 3 0 11 -7 18 -10 9 -11 8 -5 -6z"/>
<path d="M10338 3733 c7 -3 16 -2 19 1 4 3 -2 6 -13 5 -11 0 -14 -3 -6 -6z"/>
<path d="M10258 3693 c7 -3 16 -2 19 1 4 3 -2 6 -13 5 -11 0 -14 -3 -6 -6z"/>
</g>
</svg>
