<?xml version="1.0" standalone="no"?>
<!DOCTYPE svg PUBLIC "-//W3C//DTD SVG 20010904//EN"
 "http://www.w3.org/TR/2001/REC-SVG-20010904/DTD/svg10.dtd">
<svg version="1.0" xmlns="http://www.w3.org/2000/svg"
 width="16.000000pt" height="16.000000pt" viewBox="0 0 16.000000 16.000000"
 preserveAspectRatio="xMidYMid meet">
<metadata>
Created by potrace 1.11, written by Peter Selinger 2001-2013
</metadata>
<g transform="translate(0.000000,16.000000) scale(0.003765,-0.003765)"
fill="#000000" stroke="none">
<path d="M2397 4143 c-3 -3 -19 -7 -34 -8 -162 -16 -259 -56 -351 -144 -65
-64 -123 -152 -156 -239 -22 -61 -27 -80 -40 -148 -6 -29 -18 -161 -20 -209
-1 -40 -2 -40 -81 -80 l-81 -40 58 -50 c32 -28 70 -55 85 -62 l28 -11 -25 -10
-25 -10 29 -13 28 -13 -6 -106 c-3 -58 -7 -114 -9 -125 -3 -11 -8 -45 -11 -76
-4 -31 -9 -67 -11 -80 -3 -13 -12 -60 -20 -104 -21 -108 -99 -327 -177 -497
-29 -64 -32 -67 -62 -64 -17 2 -36 4 -42 5 -25 2 -95 171 -108 259 -9 62 -14
55 -73 -98 -35 -89 -48 -133 -59 -190 -2 -14 -6 -34 -9 -45 -21 -99 -22 -255
-2 -370 8 -44 14 -81 13 -82 -5 -6 -97 76 -131 117 -47 57 -97 151 -111 205
-30 123 -36 217 -19 300 8 41 -6 24 -48 -60 -36 -72 -72 -169 -81 -221 -3 -16
-10 -44 -16 -63 -10 -36 -7 -255 4 -304 4 -16 15 -51 26 -79 11 -28 17 -54 15
-58 -14 -22 -177 11 -235 48 l-25 16 16 -25 c27 -42 141 -127 204 -153 33 -14
86 -32 117 -41 48 -14 58 -20 63 -44 3 -15 31 -65 61 -112 31 -46 68 -109 84
-139 15 -31 41 -67 57 -80 16 -14 45 -45 64 -70 19 -25 37 -47 40 -50 3 -3 34
-43 69 -90 109 -146 240 -259 412 -353 25 -14 65 -38 89 -53 48 -30 175 -79
229 -88 117 -19 211 -37 250 -49 47 -14 85 -14 160 -3 131 21 171 87 171 281
-1 73 -3 93 -12 110 -4 6 -9 22 -13 37 -6 26 -54 109 -159 278 -26 41 -55 85
-63 97 -14 20 -14 23 -2 23 9 0 32 -21 52 -47 99 -128 366 -377 506 -473 12
-8 43 -30 68 -49 38 -29 57 -35 116 -41 128 -13 166 5 214 103 81 161 76 270
-19 438 -23 41 -45 76 -48 79 -3 3 -31 34 -61 70 -30 36 -57 67 -61 70 -15 13
-169 222 -169 231 0 6 7 23 15 38 26 51 56 185 61 271 3 47 7 93 9 103 5 27
-8 20 -38 -22 -15 -22 -45 -54 -67 -71 l-40 -32 -1 89 c0 48 -3 81 -7 73 -11
-25 -41 -64 -46 -59 -2 2 -7 33 -11 69 -7 65 -7 66 22 80 15 7 30 14 33 14 3
1 26 13 52 28 56 34 121 97 157 153 22 35 30 41 47 34 47 -17 103 -115 91
-160 -6 -22 8 -26 17 -4 3 8 8 36 12 63 10 79 -28 143 -98 165 -15 5 -15 10
-4 49 31 104 15 279 -35 384 -19 40 -29 78 -29 107 0 48 -12 61 -43 45 -9 -5
-23 -5 -31 -1 -31 19 -74 61 -91 91 -13 21 -35 38 -62 48 -24 10 -42 22 -40
28 3 6 9 10 15 9 9 -2 52 84 67 137 4 14 25 42 47 62 22 20 37 42 33 48 -3 5
-11 7 -17 4 -6 -4 -6 1 1 14 6 12 16 24 22 27 6 4 23 25 39 47 29 40 29 41 10
57 -17 13 -18 22 -11 54 5 21 7 50 6 65 -2 15 -6 52 -9 82 -10 114 -77 279
-158 387 -46 63 -167 162 -247 202 -97 49 -263 91 -276 70 -4 -5 -13 -5 -24 1
-10 5 -21 7 -24 3z"/>
<path d="M3111 3011 c-13 -13 -21 -35 -22 -58 0 -21 -1 -53 -2 -71 -1 -17 2
-32 6 -32 4 0 29 11 55 24 74 37 87 86 27 98 -12 2 -19 10 -17 20 1 8 -4 21
-12 27 -12 10 -19 8 -35 -8z"/>
</g>
</svg>
